<svg xmlns="http://www.w3.org/2000/svg" viewBox="0 0 360 100" fill="currentColor">
  <g transform="translate(10, 10)">
    <path d="M67.18 37.02a24.5 24.5 0 0 0-2.1-20.22A24.8 24.8 0 0 0 38.4 5.24a24.5 24.5 0 0 0-16.55-6.87A24.8 24.8 0 0 0-1.5 10.1a24.5 24.5 0 0 0-16.37 7.93A24.8 24.8 0 0 0-14.82 42a24.5 24.5 0 0 0 2.1 20.22 24.8 24.8 0 0 0 26.68 11.56A24.5 24.5 0 0 0 30.5 80.65a24.8 24.8 0 0 0 23.35-11.73A24.5 24.5 0 0 0 70.22 61a24.8 24.8 0 0 0-3.04-23.98zM30.5 74.8a18.4 18.4 0 0 1-11.82-4.3c.15-.08.41-.23.58-.33l19.63-11.34a3.19 3.19 0 0 0 1.61-2.79V33.77l8.3 4.79a.29.29 0 0 1 .16.23v22.92A18.48 18.48 0 0 1 30.5 74.8zM-7.88 61.17a18.4 18.4 0 0 1-2.2-12.38c.15.09.4.25.58.35l19.63 11.34a3.2 3.2 0 0 0 3.22 0l23.97-13.84v9.58a.3.3 0 0 1-.12.25L17.4 67.9a18.48 18.48 0 0 1-25.28-6.73zm-5-42.82a18.4 18.4 0 0 1 9.63-8.1v23.35a3.19 3.19 0 0 0 1.6 2.79l23.97 13.84-8.3 4.79a.3.3 0 0 1-.28.02L-5.87 43.6a18.48 18.48 0 0 1-7.01-25.25zM52.58 39.2L28.61 25.36l8.3-4.8a.3.3 0 0 1 .28-.02l19.62 11.33a18.47 18.47 0 0 1-2.84 33.36V41.99a3.2 3.2 0 0 0-1.39-2.79zm8.26-12.42a28 28 0 0 0-.58-.35L40.63 15.09a3.2 3.2 0 0 0-3.22 0L13.44 28.93v-9.58a.3.3 0 0 1 .12-.25l19.62-11.33a18.47 18.47 0 0 1 27.66 19.01zM8.68 45.23l-8.3-4.8a.29.29 0 0 1-.16-.22V17.29a18.47 18.47 0 0 1 30.28-14.2c-.15.08-.42.23-.59.33L10.28 14.76a3.19 3.19 0 0 0-1.61 2.79l.01 27.68zm4.51-9.72l10.68-6.16 10.68 6.16v12.33l-10.68 6.16-10.68-6.16V35.51z" transform="translate(27, 4) scale(0.9)"/>
  </g>
  <text x="110" y="68" font-family="Inter, system-ui, sans-serif" font-size="56" font-weight="500" letter-spacing="-0.5">OpenAI</text>
</svg>
